<svg width="32" height="32" viewBox="0 0 32 32" x="0" y="0">
<path fill="#9be1a0" d="M27.311 5.226c-0.095-0.321-0.254-0.616-0.468-0.868s-0.477-0.452-0.772-0.589c-0.293-0.142-0.613-0.214-0.937-0.21h-18.216c-0.323-0.019-0.646 0.049-0.937 0.197-0.301 0.139-0.57 0.345-0.785 0.604-0.214 0.251-0.374 0.546-0.468 0.866-0.098 0.318-0.128 0.654-0.089 0.984l2.076 18.377c0.139 1.258 0.722 2.415 1.633 3.255 0.891 0.839 2.050 1.307 3.253 1.313h8.861c1.207-0.005 2.37-0.473 3.266-1.313 0.899-0.848 1.475-2.004 1.62-3.255l1.127-10.331v-0.158l0.873-7.876c0.049-0.332 0.036-0.671-0.038-0.998zM14.525 25.375h-1.266c-0.82-0.047-1.601-0.38-2.215-0.945-0.612-0.572-1.015-1.347-1.139-2.192l-0.304-2.258c-0.039-0.344 0.053-0.691 0.258-0.965s0.504-0.455 0.835-0.503 0.667 0.040 0.936 0.246c0.269 0.206 0.45 0.512 0.503 0.854l0.304 2.232c0.034 0.244 0.151 0.467 0.329 0.63 0.177 0.168 0.406 0.266 0.646 0.276h1.266c0.336 0 0.658 0.138 0.895 0.384s0.371 0.58 0.371 0.928-0.133 0.682-0.371 0.928c-0.237 0.246-0.559 0.384-0.895 0.384h-0.152zM24.652 13.259c-2.671 0.538-4.949 0.643-7.367-1.313-3-2.455-6.633-1.667-10.127-0.381l-0.633-5.566c-0.012-0.056-0.012-0.114 0-0.171 0.017-0.055 0.048-0.105 0.089-0.144 0.030-0.048 0.074-0.085 0.127-0.105 0.050-0.015 0.102-0.015 0.152 0h18.38c0.047 0.028 0.090 0.063 0.127 0.105 0.038 0.039 0.063 0.091 0.076 0.144 0.019 0.060 0.019 0.124 0 0.184l-0.823 7.246z"></path>
</svg>